<?xml version="1.0" encoding="utf-8"?>
<!-- Generator: Adobe Illustrator 27.0.1, SVG Export Plug-In . SVG Version: 6.00 Build 0)  -->
<svg version="1.1" id="Слой_1" xmlns="http://www.w3.org/2000/svg" xmlns:xlink="http://www.w3.org/1999/xlink" x="0px" y="0px"
	 viewBox="0 0 2649 1469" style="enable-background:new 0 0 2649 1469;" xml:space="preserve">
<style type="text/css">
	.st0{fill:#1D1D1B;}
	.st1{fill:#D1322F;}
	.st2{fill:#C23331;}
	.st3{fill:#BE3331;}
	.st4{fill:#171514;}
</style>
<path class="st0" d="M750.36,752.63c15.16-85.77,30.09-170.31,45.05-254.85c3.39-19.17,7.14-38.29,10.23-57.51
	c2.12-13.17,9.52-22,20.98-27.88c11.64-5.97,24.21-8.04,37.18-8.05c23.74-0.02,47.49,0.15,71.23-0.12c6.18-0.07,7.87,0.75,6.61,7.79
	c-19.84,110.59-39.3,221.24-58.71,331.9c-1.07,6.11-2.75,9.02-10.13,8.94C832.42,752.38,792.03,752.63,750.36,752.63z"/>
<path class="st0" d="M1021.65,752.64c-18.3,0-36.62-0.56-54.89,0.23c-9.19,0.4-9.62-3.06-8.28-10.38
	c9-49.32,17.76-98.69,26.54-148.06c10.85-61,21.79-121.98,32.24-183.04c1.1-6.45,3.6-7.43,9.24-7.4
	c37.56,0.2,75.12,0.26,112.68-0.05c6.75-0.06,8.93,1.31,7.66,8.4c-16.47,91.78-32.72,183.61-49.03,275.42
	c-3.41,19.18-7.28,38.29-10.04,57.57c-0.95,6.6-3.69,7.5-9.3,7.42C1059.53,752.48,1040.59,752.64,1021.65,752.64z"/>
<path class="st1" d="M1429.97,351.09c-14.26-66.8-56.04-109.16-119.23-132.28c-29.37-10.14-59.59-13.64-90.53-11.52
	c-28.25,0-56.51,0-84.76,0c-25.29-0.11-50.58-0.11-75.87-0.4c-4.74-0.05-6.44,1.31-7.27,6.21c-6.5,38-13.31,75.94-20.25,113.86
	c-0.92,5.03-0.05,6.72,5.43,6.66c32.65-0.34,65.31-0.35,97.96-0.47c28.26,0.71,56.51,1.42,84.77,2.13
	c7.23,1.35,14.59,2.21,21.66,4.15c20.63,5.65,38.35,15.5,49.62,34.75c12.88,21.99,12.74,45.38,8.5,69.34
	c-12.35,69.74-24.85,139.45-37.06,209.22c-6.67,38.16,8.61,66.87,43.29,82.44c13.69,8.79,29.13,12.94,44.77,16.27
	c23.48,5,23.2,4.74,27.28-18.59c16.27-93.04,32.73-186.04,49.19-279.05C1433.49,419.69,1437.32,385.47,1429.97,351.09z"/>
<path class="st2" d="M971.5,206.85c-23.04,0.41-46.09,0.33-69.14,0.44c-13.69-1.35-26.79,0.7-39.21,6.69
	c-11.64,5.62-19.31,14.13-21.46,27.36c-2.56,15.73-5.79,31.34-8.62,47.03c-3.5,19.37-6.89,38.75-10.86,61.07
	c12.4-11.41,25.26-14.65,38.86-15.22c13.75-0.58,27.53-0.62,41.29-0.89c16,0.1,32.01,0.14,48.01,0.36c3.77,0.05,5.51-0.86,6.25-5.06
	c6.77-38.27,13.79-76.5,20.89-114.71C978.49,208.62,977.33,206.74,971.5,206.85z"/>
<g>
	<path class="st3" d="M308.33,405.98c-12.06-0.14-24.12-0.1-36.18,0.15c-2.83,0.06-4.77,2.46-4.76,5.13
		c0.01,3.7,3.04,4.34,6.11,4.36c5.41,0.02,10.82,0.01,16.22,0.01c0-0.06,0-0.12,0-0.18c5.72,0,11.45,0.17,17.16-0.07
		c2.79-0.12,4.66-2.06,5.13-4.83C312.48,407.83,310.72,406.01,308.33,405.98z"/>
	<path class="st3" d="M310.07,380.29c-5.13-0.07-10.26-0.02-15.39-0.02c0,0.08,0,0.15,0,0.23c-5.77,0-11.55-0.23-17.29,0.09
		c-3.17,0.18-5.4,2.29-5.27,5.72c0.13,3.37,2.86,3.95,5.52,3.96c10.9,0.05,21.8,0.13,32.7-0.1c3.45-0.07,6.48-1.83,6.23-5.83
		C316.32,380.52,313.02,380.33,310.07,380.29z"/>
	<path class="st3" d="M302.01,431.26c-10.9-0.05-21.8-0.04-32.7,0.03c-3.7,0.02-6.37,1.79-6.25,5.67c0.12,3.9,3.37,4.03,6.36,4.04
		c4.81,0,9.62,0,14.43,0c0-0.04,0-0.08,0-0.11c6.09,0,12.19,0.17,18.27-0.07c3.31-0.13,5.23-2.27,5.25-5.66
		C307.4,431.5,304.63,431.27,302.01,431.26z"/>
	<path class="st3" d="M317.3,355.17c-12.13-0.12-24.27-0.17-36.39,0.2c-2.46,0.08-4.54,2.5-4.37,5.47c0.2,3.43,2.94,3.76,5.57,3.79
		c5.43,0.07,10.86,0.02,16.3,0.02c0-0.04,0-0.09,0-0.13c5.75,0,11.5,0.07,17.25-0.03c2.95-0.05,4.78-1.79,5.19-4.65
		C321.21,357.28,319.94,355.2,317.3,355.17z"/>
</g>
<path class="st4" d="M412.32,316.62"/>
<g>
	<path class="st0" d="M478.81,467.7c20.35-3.6,40.96-1.29,61.34-3.38c17.01-1.74,28.75-14.34,28.83-30.37
		c0.07-14.58-12.64-28.41-28.67-29.48c-15.64-1.04-31.45,0.24-47.06-0.99c-32.1,0.49-42.38,8.2-61.14,27.46l-14.67,13.17
		c0,0-23.1,24.1-58.51,23.09c-18.53-0.56-37.1,0.01-55.65,0.08c-6.66-0.21-13.33-0.23-19.97-0.7c-5.01-0.36-6.4,1.97-7.13,6.53
		c-3.31,20.64-7.01,41.22-10.56,61.83c-4.5,19.73-7.64,39.7-10.34,59.74c-2.96,15.66-6.04,31.29-8.86,46.97
		c-6.09,33.9-12.13,67.82-17.96,101.77c-0.6,3.52-3.95,8.98,4.68,8.87c31.72-0.41,63.46-0.34,95.18-0.45
		c0.94,0.11,1.88,0.3,2.82,0.32c25.43,0.58,25.43,0.58,29.26-24.52c2.28-15.25,4.49-30.66,7.43-45.64
		c3.56-18.19,6.8-36.47,10.24-54.7c3.98-21.87,8.77-43.63,11.77-65.64c4.98-36.49,19.36-66.3,54.37-83
		C455.33,473.72,466.72,469.84,478.81,467.7z"/>
	<path class="st0" d="M749.51,338.93c-18.7-73.68-80.39-119.87-146.96-130.24c-7.03-1.1-16.63-1.93-27.9-2.55H328.82
		c-1.49-0.3-3.31,0.1-4.89,1.24c-1.62,1.17-2.59,2.82-2.73,4.37c0,0.01-0.01,0.02-0.01,0.03c-2.64,14.36-5.1,28.75-7.63,43.13
		c-4.18,22.56-8.27,45.15-12.62,67.68c-0.83,4.27-0.81,6.58,4.58,6.41c14.69-0.45,29.4-0.53,44.1-0.76
		c30.14,0.88,145.64,0.43,173.25-0.29c10.23,0.62,20.5,0.87,30.69,1.92c35.43,3.66,62.3,26.22,70.52,59.84
		c5.36,21.94,3.74,43.71-4.07,65.03c-8.45,23.05-25.43,38.54-45.29,51.59c-21.14,10.69-43.76,14.5-67.25,15.74
		c-18.61,0.98-35.31,7.65-48.01,22.13c-17.72,16.73-23.83,44.16-14.61,65.63c9.66,22.49,32.94,35.79,60.7,34.66
		c16.98,1.13,33.9,0.3,50.71-2.05c26.02-3.63,51.34-9.74,74.52-22.73c34.5-16.7,63.93-40.29,84.09-72.44
		C755.12,483.04,768.46,413.56,749.51,338.93z"/>
</g>
</svg>
