<?xml version="1.0" encoding="utf-8"?>
<!-- Generator: Adobe Illustrator 27.0.1, SVG Export Plug-In . SVG Version: 6.00 Build 0)  -->
<svg version="1.1" id="Слой_1" xmlns="http://www.w3.org/2000/svg" xmlns:xlink="http://www.w3.org/1999/xlink" x="0px" y="0px"
	 viewBox="0 0 2649 1469" style="enable-background:new 0 0 2649 1469;" xml:space="preserve">
<style type="text/css">
	.st0{fill:#1D1D1B;}
	.st1{fill:#D1322F;}
	.st2{fill:#C23331;}
	.st3{fill:#BE3331;}
	.st4{fill:#171514;}
</style>
<path class="st0" d="M210.25,867.47l12.8-61.12h47.99l-12.76,61.12h-8.17l11.55-54.16h-31.69l-11.55,54.16H210.25z"/>
<path class="st0" d="M274.43,850.67c0-8.64,2.54-15.8,7.63-21.47c4.2-4.67,9.7-7,16.51-7c5.34,0,9.64,1.67,12.9,5
	c3.27,3.33,4.9,7.84,4.9,13.51c0,5.09-1.03,9.82-3.08,14.2c-2.06,4.38-4.98,7.73-8.78,10.07c-3.79,2.33-7.79,3.5-11.99,3.5
	c-3.45,0-6.58-0.74-9.4-2.21c-2.82-1.47-4.98-3.56-6.46-6.25C275.18,857.31,274.43,854.2,274.43,850.67z M281.98,849.92
	c0,4.17,1,7.33,3,9.48c2,2.15,4.54,3.23,7.63,3.23c1.61,0,3.21-0.33,4.79-0.98c1.58-0.65,3.06-1.65,4.42-2.98
	c1.36-1.33,2.52-2.86,3.48-4.57c0.96-1.71,1.73-3.55,2.31-5.52c0.86-2.75,1.29-5.39,1.29-7.92c0-4-1.01-7.11-3.02-9.32
	c-2.02-2.21-4.55-3.31-7.61-3.31c-2.36,0-4.52,0.56-6.46,1.69c-1.95,1.13-3.7,2.77-5.27,4.94c-1.57,2.17-2.72,4.69-3.46,7.57
	C282.35,845.1,281.98,847.66,281.98,849.92z"/>
<path class="st0" d="M369.06,850.67c0-8.64,2.54-15.8,7.63-21.47c4.2-4.67,9.7-7,16.51-7c5.34,0,9.64,1.67,12.9,5
	c3.27,3.33,4.9,7.84,4.9,13.51c0,5.09-1.03,9.82-3.08,14.2c-2.06,4.38-4.98,7.73-8.78,10.07c-3.79,2.33-7.79,3.5-11.99,3.5
	c-3.45,0-6.58-0.74-9.4-2.21c-2.82-1.47-4.98-3.56-6.46-6.25C369.8,857.31,369.06,854.2,369.06,850.67z M376.6,849.92
	c0,4.17,1,7.33,3,9.48c2,2.15,4.54,3.23,7.63,3.23c1.61,0,3.21-0.33,4.79-0.98c1.58-0.65,3.06-1.65,4.42-2.98
	c1.36-1.33,2.52-2.86,3.48-4.57c0.96-1.71,1.73-3.55,2.31-5.52c0.86-2.75,1.29-5.39,1.29-7.92c0-4-1.01-7.11-3.02-9.32
	c-2.02-2.21-4.55-3.31-7.61-3.31c-2.36,0-4.52,0.56-6.46,1.69c-1.95,1.13-3.7,2.77-5.27,4.94c-1.57,2.17-2.72,4.69-3.46,7.57
	C376.97,845.1,376.6,847.66,376.6,849.92z"/>
<path class="st0" d="M427.84,823.19h11.22l4.17,35.31l20.55-35.31h11.01l-9.46,44.28h-7.46l7.71-35.69l-20.76,35.69h-6.71
	l-4.38-37.06l-7.92,37.06h-7.46L427.84,823.19z"/>
<path class="st0" d="M475.07,884.56l0.46-7.09c1.56,0.44,3.07,0.67,4.54,0.67c1.53,0,2.77-0.35,3.71-1.04
	c1.22-0.92,2.56-2.64,4-5.17l2.42-4.34l-7.38-44.4h7.42l3.34,22.39c0.67,4.42,1.24,8.84,1.71,13.26l19.8-35.65h7.88l-28.23,50.16
	c-2.72,4.89-5.14,8.13-7.25,9.71c-2.11,1.58-4.54,2.38-7.3,2.38C478.45,885.44,476.74,885.15,475.07,884.56z"/>
<path class="st0" d="M565.87,823.19h7.42l-1.58,7.42c-1,4.7-1.5,7.99-1.5,9.88c0,1.95,0.74,3.41,2.21,4.4
	c1.47,0.99,3.68,1.48,6.63,1.48c3.59,0,6.89-0.63,9.92-1.88l4.54-21.3h7.5l-9.42,44.28h-7.55l3.63-16.97
	c-3.75,1.25-7.25,1.88-10.51,1.88c-4.53,0-8.08-0.96-10.65-2.88c-2.57-1.92-3.86-4.64-3.86-8.17c0-1.5,0.67-5.6,2-12.3
	L565.87,823.19z"/>
<path class="st0" d="M646.8,850.67c0-8.64,2.54-15.8,7.63-21.47c4.2-4.67,9.7-7,16.51-7c5.34,0,9.64,1.67,12.9,5
	c3.27,3.33,4.9,7.84,4.9,13.51c0,5.09-1.03,9.82-3.08,14.2c-2.06,4.38-4.98,7.73-8.78,10.07c-3.79,2.33-7.79,3.5-11.99,3.5
	c-3.45,0-6.58-0.74-9.4-2.21c-2.82-1.47-4.98-3.56-6.46-6.25C647.55,857.31,646.8,854.2,646.8,850.67z M654.35,849.92
	c0,4.17,1,7.33,3,9.48c2,2.15,4.54,3.23,7.63,3.23c1.61,0,3.21-0.33,4.79-0.98c1.58-0.65,3.06-1.65,4.42-2.98
	c1.36-1.33,2.52-2.86,3.48-4.57c0.96-1.71,1.73-3.55,2.31-5.52c0.86-2.75,1.29-5.39,1.29-7.92c0-4-1.01-7.11-3.02-9.32
	c-2.02-2.21-4.55-3.31-7.61-3.31c-2.36,0-4.52,0.56-6.46,1.69c-1.95,1.13-3.7,2.77-5.27,4.94c-1.57,2.17-2.72,4.69-3.46,7.57
	C654.72,845.1,654.35,847.66,654.35,849.92z"/>
<path class="st0" d="M745.48,806.35h7.8l-9.96,46.95l41.9-46.95h7.67l-13.09,61.12h-7.75l10.01-46.61l-41.78,46.61h-7.92
	L745.48,806.35z"/>
<path class="st0" d="M804.11,823.19h7.46l-4,18.47h20.55l3.92-18.47h7.38l-9.34,44.28h-7.5l4.25-19.8h-20.47l-4.25,19.8h-7.46
	L804.11,823.19z"/>
<path class="st0" d="M917.3,852.42l7.34,0.75c-1.06,3.64-3.48,7.1-7.28,10.38c-3.79,3.28-8.32,4.92-13.57,4.92
	c-3.28,0-6.29-0.76-9.03-2.27c-2.74-1.51-4.82-3.72-6.25-6.61c-1.43-2.89-2.15-6.18-2.15-9.88c0-4.84,1.12-9.53,3.36-14.07
	s5.13-7.92,8.69-10.13c3.56-2.21,7.41-3.31,11.55-3.31c5.28,0,9.5,1.64,12.65,4.92c3.15,3.28,4.73,7.75,4.73,13.42
	c0,2.17-0.19,4.39-0.58,6.67h-32.6c-0.11,0.86-0.17,1.64-0.17,2.33c0,4.14,0.95,7.3,2.86,9.48c1.9,2.18,4.23,3.27,6.98,3.27
	c2.58,0,5.13-0.85,7.63-2.54S915.91,855.61,917.3,852.42z M895.36,841.45h24.85c0.03-0.78,0.04-1.33,0.04-1.67
	c0-3.78-0.95-6.68-2.83-8.69c-1.89-2.01-4.32-3.02-7.3-3.02c-3.22,0-6.16,1.11-8.82,3.33C898.65,833.63,896.67,836.98,895.36,841.45
	z"/>
<path class="st0" d="M930.18,884.44l12.8-61.25h6.96l-1.29,6.17c2.58-2.7,4.9-4.57,6.94-5.61c2.04-1.04,4.2-1.56,6.48-1.56
	c4.22,0,7.73,1.54,10.51,4.61c2.78,3.07,4.17,7.47,4.17,13.2c0,4.61-0.77,8.82-2.29,12.61c-1.53,3.79-3.4,6.84-5.63,9.15
	c-2.22,2.31-4.48,4-6.75,5.09c-2.28,1.08-4.61,1.63-7,1.63c-5.31,0-9.42-2.7-12.34-8.09l-5,24.06H930.18z M945.11,849.37
	c0,3.31,0.24,5.6,0.71,6.88c0.69,1.81,1.83,3.27,3.42,4.38c1.58,1.11,3.42,1.67,5.5,1.67c4.34,0,7.84-2.44,10.51-7.32
	s4-9.86,4-14.95c0-3.75-0.9-6.65-2.69-8.69c-1.79-2.04-4.02-3.06-6.69-3.06c-1.92,0-3.7,0.51-5.34,1.52
	c-1.64,1.02-3.16,2.53-4.57,4.54c-1.4,2.02-2.56,4.48-3.48,7.4C945.57,844.66,945.11,847.21,945.11,849.37z"/>
<path class="st0" d="M994.02,823.19h7.46l-4,18.47h20.55l3.92-18.47h7.38l-9.34,44.28h-7.5l4.25-19.8h-20.47l-4.25,19.8h-7.46
	L994.02,823.19z"/>
<path class="st0" d="M1069.61,852.42l7.34,0.75c-1.06,3.64-3.48,7.1-7.28,10.38c-3.79,3.28-8.32,4.92-13.57,4.92
	c-3.28,0-6.29-0.76-9.03-2.27c-2.74-1.51-4.82-3.72-6.25-6.61c-1.43-2.89-2.15-6.18-2.15-9.88c0-4.84,1.12-9.53,3.36-14.07
	s5.13-7.92,8.69-10.13c3.56-2.21,7.41-3.31,11.55-3.31c5.28,0,9.5,1.64,12.65,4.92c3.15,3.28,4.73,7.75,4.73,13.42
	c0,2.17-0.19,4.39-0.58,6.67h-32.6c-0.11,0.86-0.17,1.64-0.17,2.33c0,4.14,0.95,7.3,2.86,9.48c1.9,2.18,4.23,3.27,6.98,3.27
	c2.58,0,5.13-0.85,7.63-2.54S1068.22,855.61,1069.61,852.42z M1047.68,841.45h24.85c0.03-0.78,0.04-1.33,0.04-1.67
	c0-3.78-0.95-6.68-2.83-8.69c-1.89-2.01-4.32-3.02-7.3-3.02c-3.22,0-6.16,1.11-8.82,3.33
	C1050.96,833.63,1048.98,836.98,1047.68,841.45z"/>
<path class="st0" d="M1164.87,867.47l12.8-61.12h8.13l-5.29,25.39h31.69l5.29-25.39h8.17l-12.76,61.12h-8.17l6-28.81h-31.64
	l-6.05,28.81H1164.87z"/>
<path class="st0" d="M1225.1,884.56l0.46-7.09c1.56,0.44,3.07,0.67,4.54,0.67c1.53,0,2.77-0.35,3.71-1.04
	c1.22-0.92,2.56-2.64,4-5.17l2.42-4.34l-7.38-44.4h7.42l3.34,22.39c0.67,4.42,1.24,8.84,1.71,13.26l19.8-35.65h7.88l-28.23,50.16
	c-2.72,4.89-5.14,8.13-7.25,9.71c-2.11,1.58-4.54,2.38-7.3,2.38C1228.47,885.44,1226.76,885.15,1225.1,884.56z"/>
<path class="st0" d="M1302.15,823.19h7.34l-4.09,18.93l0.58,0.04c1.58,0,3.09-0.67,4.52-2c1.43-1.33,3.26-3.85,5.48-7.55
	c2.42-4.03,4.61-6.61,6.59-7.73c1.97-1.13,4.02-1.69,6.13-1.69c1.53,0,3.09,0.25,4.67,0.75l-1.71,4.5c-1-0.33-1.83-0.5-2.5-0.5
	c-1.25,0-2.34,0.43-3.27,1.29c-0.93,0.86-2.15,2.63-3.65,5.29c-3.06,5.48-6.49,8.85-10.3,10.13c1.31,0.47,2.56,1.24,3.77,2.31
	c1.21,1.07,2.44,3.19,3.69,6.36l5.54,14.13h-7.75l-4.38-11.26c-1.36-3.53-2.61-5.91-3.73-7.15c-1.13-1.24-2.68-2.01-4.65-2.31
	l-4.5,20.72h-7.42l4.46-20.72c-1.53,0.06-2.96,0.51-4.29,1.38c-1.33,0.86-3.59,3.35-6.75,7.46l-9.13,11.88h-9.17l11.72-14.76
	c3.45-4.34,7.11-7.02,11.01-8.05c-1.67-1.06-2.92-2.33-3.75-3.84c-0.83-1.5-1.61-4.2-2.33-8.09c-0.33-1.95-0.74-3.25-1.21-3.92
	c-0.5-0.64-1.22-0.96-2.17-0.96c-0.64,0-1.71,0.19-3.21,0.58l0.5-4.79c1.33-0.31,2.64-0.46,3.92-0.46c2.64,0,4.54,0.72,5.71,2.17
	c1.14,1.47,2.11,4.07,2.92,7.8c0.81,3.7,1.69,6.11,2.65,7.25c0.96,1.14,2.49,1.71,4.61,1.71L1302.15,823.19z"/>
<path class="st0" d="M1368.3,852.42l7.34,0.75c-1.06,3.64-3.48,7.1-7.28,10.38c-3.79,3.28-8.32,4.92-13.57,4.92
	c-3.28,0-6.29-0.76-9.03-2.27c-2.74-1.51-4.82-3.72-6.25-6.61c-1.43-2.89-2.15-6.18-2.15-9.88c0-4.84,1.12-9.53,3.36-14.07
	s5.13-7.92,8.69-10.13c3.56-2.21,7.41-3.31,11.55-3.31c5.28,0,9.5,1.64,12.65,4.92c3.15,3.28,4.73,7.75,4.73,13.42
	c0,2.17-0.19,4.39-0.58,6.67h-32.6c-0.11,0.86-0.17,1.64-0.17,2.33c0,4.14,0.95,7.3,2.86,9.48c1.9,2.18,4.23,3.27,6.98,3.27
	c2.58,0,5.13-0.85,7.63-2.54S1366.91,855.61,1368.3,852.42z M1346.37,841.45h24.85c0.03-0.78,0.04-1.33,0.04-1.67
	c0-3.78-0.95-6.68-2.83-8.69c-1.89-2.01-4.32-3.02-7.3-3.02c-3.22,0-6.16,1.11-8.82,3.33
	C1349.65,833.63,1347.67,836.98,1346.37,841.45z"/>
<path class="st0" d="M1391.44,823.19h7.46l-4,18.47h20.55l3.92-18.47h7.38l-9.34,44.28h-7.5l4.25-19.8h-20.47l-4.25,19.8h-7.46
	L1391.44,823.19z"/>
<g>
	<path class="st0" d="M1445.38,236.99c-0.42-0.41-1.05-0.83-1.86-1.25c2.24-0.33,3.89-1.11,4.97-2.34c1.07-1.23,1.61-2.73,1.61-4.52
		c0-1.39-0.32-2.65-0.97-3.8c-0.65-1.15-1.51-1.94-2.59-2.4c-1.08-0.45-2.66-0.68-4.74-0.68h-10.35v25.2h3.09v-11.19h3.58
		c0.8,0,1.37,0.04,1.72,0.12c0.48,0.13,0.95,0.35,1.41,0.67c0.46,0.32,0.98,0.88,1.57,1.68c0.58,0.8,1.33,1.96,2.23,3.47l3.09,5.24
		h3.88l-4.06-6.86C1447.13,239,1446.28,237.89,1445.38,236.99z M1441.16,233.13h-6.64v-8.34h7.38c1.73,0,2.99,0.38,3.8,1.15
		s1.2,1.75,1.2,2.94c0,0.81-0.21,1.57-0.62,2.26c-0.41,0.69-1.02,1.2-1.81,1.51C1443.68,232.97,1442.57,233.13,1441.16,233.13z"/>
	<path class="st0" d="M1440.5,209.15c-13.43,0-24.35,10.92-24.35,24.35s10.92,24.35,24.35,24.35s24.35-10.92,24.35-24.35
		S1453.93,209.15,1440.5,209.15z M1440.5,255.15c-11.94,0-21.65-9.71-21.65-21.65s9.71-21.65,21.65-21.65s21.65,9.71,21.65,21.65
		S1452.44,255.15,1440.5,255.15z"/>
</g>
<path class="st0" d="M750.36,752.63c15.16-85.77,30.09-170.31,45.05-254.85c3.39-19.17,7.14-38.29,10.23-57.51
	c2.12-13.17,9.52-22,20.98-27.88c11.64-5.97,24.21-8.04,37.18-8.05c23.74-0.02,47.49,0.15,71.23-0.12c6.18-0.07,7.87,0.75,6.61,7.79
	c-19.84,110.59-39.3,221.24-58.71,331.9c-1.07,6.11-2.75,9.02-10.13,8.94C832.42,752.38,792.03,752.63,750.36,752.63z"/>
<path class="st0" d="M1021.65,752.64c-18.3,0-36.62-0.56-54.89,0.23c-9.19,0.4-9.62-3.06-8.28-10.38
	c9-49.32,17.76-98.69,26.54-148.06c10.85-61,21.79-121.98,32.24-183.04c1.1-6.45,3.6-7.43,9.24-7.4
	c37.56,0.2,75.12,0.26,112.68-0.05c6.75-0.06,8.93,1.31,7.66,8.4c-16.47,91.78-32.72,183.61-49.03,275.42
	c-3.41,19.18-7.28,38.29-10.04,57.57c-0.95,6.6-3.69,7.5-9.3,7.42C1059.53,752.48,1040.59,752.64,1021.65,752.64z"/>
<path class="st1" d="M1429.97,351.09c-14.26-66.8-56.04-109.16-119.23-132.28c-29.37-10.14-59.59-13.64-90.53-11.52
	c-28.25,0-56.51,0-84.76,0c-25.29-0.11-50.58-0.11-75.87-0.4c-4.74-0.05-6.44,1.31-7.27,6.21c-6.5,38-13.31,75.94-20.25,113.86
	c-0.92,5.03-0.05,6.72,5.43,6.66c32.65-0.34,65.31-0.35,97.96-0.47c28.26,0.71,56.51,1.42,84.77,2.13
	c7.23,1.35,14.59,2.21,21.66,4.15c20.63,5.65,38.35,15.5,49.62,34.75c12.88,21.99,12.74,45.38,8.5,69.34
	c-12.35,69.74-24.85,139.45-37.06,209.22c-6.67,38.16,8.61,66.87,43.29,82.44c13.69,8.79,29.13,12.94,44.77,16.27
	c23.48,5,23.2,4.74,27.28-18.59c16.27-93.04,32.73-186.04,49.19-279.05C1433.49,419.69,1437.32,385.47,1429.97,351.09z"/>
<path class="st2" d="M971.5,206.85c-23.04,0.41-46.09,0.33-69.14,0.44c-13.69-1.35-26.79,0.7-39.21,6.69
	c-11.64,5.62-19.31,14.13-21.46,27.36c-2.56,15.73-5.79,31.34-8.62,47.03c-3.5,19.37-6.89,38.75-10.86,61.07
	c12.4-11.41,25.26-14.65,38.86-15.22c13.75-0.58,27.53-0.62,41.29-0.89c16,0.1,32.01,0.14,48.01,0.36c3.77,0.05,5.51-0.86,6.25-5.06
	c6.77-38.27,13.79-76.5,20.89-114.71C978.49,208.62,977.33,206.74,971.5,206.85z"/>
<g>
	<path class="st3" d="M308.33,405.98c-12.06-0.14-24.12-0.1-36.18,0.15c-2.83,0.06-4.77,2.46-4.76,5.13
		c0.01,3.7,3.04,4.34,6.11,4.36c5.41,0.02,10.82,0.01,16.22,0.01c0-0.06,0-0.12,0-0.18c5.72,0,11.45,0.17,17.16-0.07
		c2.79-0.12,4.66-2.06,5.13-4.83C312.48,407.83,310.72,406.01,308.33,405.98z"/>
	<path class="st3" d="M310.07,380.29c-5.13-0.07-10.26-0.02-15.39-0.02c0,0.08,0,0.15,0,0.23c-5.77,0-11.55-0.23-17.29,0.09
		c-3.17,0.18-5.4,2.29-5.27,5.72c0.13,3.37,2.86,3.95,5.52,3.96c10.9,0.05,21.8,0.13,32.7-0.1c3.45-0.07,6.48-1.83,6.23-5.83
		C316.32,380.52,313.02,380.33,310.07,380.29z"/>
	<path class="st3" d="M302.01,431.26c-10.9-0.05-21.8-0.04-32.7,0.03c-3.7,0.02-6.37,1.79-6.25,5.67c0.12,3.9,3.37,4.03,6.36,4.04
		c4.81,0,9.62,0,14.43,0c0-0.04,0-0.08,0-0.11c6.09,0,12.19,0.17,18.27-0.07c3.31-0.13,5.23-2.27,5.25-5.66
		C307.4,431.5,304.63,431.27,302.01,431.26z"/>
	<path class="st3" d="M317.3,355.17c-12.13-0.12-24.27-0.17-36.39,0.2c-2.46,0.08-4.54,2.5-4.37,5.47c0.2,3.43,2.94,3.76,5.57,3.79
		c5.43,0.07,10.86,0.02,16.3,0.02c0-0.04,0-0.09,0-0.13c5.75,0,11.5,0.07,17.25-0.03c2.95-0.05,4.78-1.79,5.19-4.65
		C321.21,357.28,319.94,355.2,317.3,355.17z"/>
</g>
<path class="st4" d="M412.32,316.62"/>
<g>
	<path class="st0" d="M478.81,467.7c20.35-3.6,40.96-1.29,61.34-3.38c17.01-1.74,28.75-14.34,28.83-30.37
		c0.07-14.58-12.64-28.41-28.67-29.48c-15.64-1.04-31.45,0.24-47.06-0.99c-32.1,0.49-42.38,8.2-61.14,27.46l-14.67,13.17
		c0,0-23.1,24.1-58.51,23.09c-18.53-0.56-37.1,0.01-55.65,0.08c-6.66-0.21-13.33-0.23-19.97-0.7c-5.01-0.36-6.4,1.97-7.13,6.53
		c-3.31,20.64-7.01,41.22-10.56,61.83c-4.5,19.73-7.64,39.7-10.34,59.74c-2.96,15.66-6.04,31.29-8.86,46.97
		c-6.09,33.9-12.13,67.82-17.96,101.77c-0.6,3.52-3.95,8.98,4.68,8.87c31.72-0.41,63.46-0.34,95.18-0.45
		c0.94,0.11,1.88,0.3,2.82,0.32c25.43,0.58,25.43,0.58,29.26-24.52c2.28-15.25,4.49-30.66,7.43-45.64
		c3.56-18.19,6.8-36.47,10.24-54.7c3.98-21.87,8.77-43.63,11.77-65.64c4.98-36.49,19.36-66.3,54.37-83
		C455.33,473.72,466.72,469.84,478.81,467.7z"/>
	<path class="st0" d="M749.51,338.93c-18.7-73.68-80.39-119.87-146.96-130.24c-7.03-1.1-16.63-1.93-27.9-2.55H328.82
		c-1.49-0.3-3.31,0.1-4.89,1.24c-1.62,1.17-2.59,2.82-2.73,4.37c0,0.01-0.01,0.02-0.01,0.03c-2.64,14.36-5.1,28.75-7.63,43.13
		c-4.18,22.56-8.27,45.15-12.62,67.68c-0.83,4.27-0.81,6.58,4.58,6.41c14.69-0.45,29.4-0.53,44.1-0.76
		c30.14,0.88,145.64,0.43,173.25-0.29c10.23,0.62,20.5,0.87,30.69,1.92c35.43,3.66,62.3,26.22,70.52,59.84
		c5.36,21.94,3.74,43.71-4.07,65.03c-8.45,23.05-25.43,38.54-45.29,51.59c-21.14,10.69-43.76,14.5-67.25,15.74
		c-18.61,0.98-35.31,7.65-48.01,22.13c-17.72,16.73-23.83,44.16-14.61,65.63c9.66,22.49,32.94,35.79,60.7,34.66
		c16.98,1.13,33.9,0.3,50.71-2.05c26.02-3.63,51.34-9.74,74.52-22.73c34.5-16.7,63.93-40.29,84.09-72.44
		C755.12,483.04,768.46,413.56,749.51,338.93z"/>
</g>
<polygon class="st0" points="611.4,823 610.05,829.8 623.73,829.8 615.74,867.71 623.69,867.71 631.67,829.8 645.01,829.8 
	646.44,823 "/>
<polygon class="st0" points="329.26,823.39 327.91,830.2 341.58,830.2 333.6,868.1 341.55,868.1 349.53,830.2 362.86,830.2 
	364.3,823.39 "/>
<polygon class="st0" points="851.26,823.39 849.91,830.2 863.58,830.2 855.6,868.1 863.55,868.1 871.53,830.2 884.86,830.2 
	886.3,823.39 "/>
<polygon class="st0" points="1091.26,824.39 1089.91,831.2 1103.58,831.2 1095.6,869.1 1103.55,869.1 1111.53,831.2 1124.86,831.2 
	1126.3,824.39 "/>
</svg>
